<svg xmlns="http://www.w3.org/2000/svg" xmlns:xlink="http://www.w3.org/1999/xlink" viewBox="0,0,256,256" width="48px" height="48px" fill-rule="nonzero"><g fill-opacity="0.32157" fill="#939393" fill-rule="nonzero" stroke="none" stroke-width="1" stroke-linecap="butt" stroke-linejoin="miter" stroke-miterlimit="10" stroke-dasharray="" stroke-dashoffset="0" font-family="none" font-weight="none" font-size="none" text-anchor="none" style="mix-blend-mode: normal"><g transform="scale(5.33333,5.33333)"><path d="M14.5,15.13c5.238,0 9.5,4.262 9.5,9.5c0,5.238 -4.262,9.5 -9.5,9.5c-5.238,0 -9.5,-4.261 -9.5,-9.5c0,-5.239 4.262,-9.5 9.5,-9.5M14.5,12.13c-6.904,0 -12.5,5.597 -12.5,12.5c0,6.903 5.596,12.5 12.5,12.5c6.904,0 12.5,-5.596 12.5,-12.5c0,-6.904 -5.596,-12.5 -12.5,-12.5zM34,16.13c0.771,0 3,2.923 3,8.5c0,5.577 -2.229,8.5 -3,8.5c-0.771,0 -3,-2.923 -3,-8.5c0,-5.577 2.229,-8.5 3,-8.5M34,13.13c-3.314,0 -6,5.149 -6,11.5c0,6.351 2.686,11.5 6,11.5c3.314,0 6,-5.149 6,-11.5c0,-6.351 -2.686,-11.5 -6,-11.5zM43.5,14.13c-0.23867,47.55172 -9.61031,85.2874 -20.93214,84.285c-11.32184,-1.0024 -20.30652,-40.36328 -20.06786,-87.915c0,0 NaN,NaN NaN,NaNcNaN,NaN NaN,NaN NaN,NaNz"></path></g></g></svg>